<svg width="900" height="500" viewBox="0 0 900 500" fill="none" xmlns="http://www.w3.org/2000/svg">
  <defs>
    <linearGradient id="bg" x1="88" y1="36" x2="826" y2="462" gradientUnits="userSpaceOnUse">
      <stop stop-color="#0A1222"/>
      <stop offset="1" stop-color="#192741"/>
    </linearGradient>
    <linearGradient id="leftPanel" x1="132" y1="100" x2="468" y2="404" gradientUnits="userSpaceOnUse">
      <stop stop-color="#15233E" stop-opacity="0.94"/>
      <stop offset="1" stop-color="#101A2E" stop-opacity="0.82"/>
    </linearGradient>
    <linearGradient id="rightPanel" x1="498" y1="100" x2="756" y2="404" gradientUnits="userSpaceOnUse">
      <stop stop-color="#13213A" stop-opacity="0.92"/>
      <stop offset="1" stop-color="#0F182A" stop-opacity="0.80"/>
    </linearGradient>
    <linearGradient id="line" x1="446" y1="252" x2="592" y2="252" gradientUnits="userSpaceOnUse">
      <stop stop-color="#86AFFF"/>
      <stop offset="1" stop-color="#E1C989"/>
    </linearGradient>
    <filter id="shadow" x="100" y="80" width="690" height="350" filterUnits="userSpaceOnUse" color-interpolation-filters="sRGB">
      <feDropShadow dx="0" dy="18" stdDeviation="24" flood-color="#020617" flood-opacity="0.44"/>
    </filter>
  </defs>

  <rect width="900" height="500" rx="30" fill="url(#bg)"/>

  <g opacity="0.12">
    <path d="M64 76H836" stroke="#8DA2C8" stroke-width="1"/>
    <path d="M64 152H836" stroke="#8DA2C8" stroke-width="1"/>
    <path d="M64 228H836" stroke="#8DA2C8" stroke-width="1"/>
    <path d="M64 304H836" stroke="#8DA2C8" stroke-width="1"/>
    <path d="M64 380H836" stroke="#8DA2C8" stroke-width="1"/>
    <path d="M116 44V456" stroke="#8DA2C8" stroke-width="1"/>
    <path d="M246 44V456" stroke="#8DA2C8" stroke-width="1"/>
    <path d="M376 44V456" stroke="#8DA2C8" stroke-width="1"/>
    <path d="M506 44V456" stroke="#8DA2C8" stroke-width="1"/>
    <path d="M636 44V456" stroke="#8DA2C8" stroke-width="1"/>
    <path d="M766 44V456" stroke="#8DA2C8" stroke-width="1"/>
  </g>

  <circle cx="760" cy="96" r="112" fill="#345AA8" opacity="0.14"/>
  <circle cx="148" cy="402" r="124" fill="#7D6630" opacity="0.09"/>

  <g filter="url(#shadow)">
    <rect x="126" y="94" width="640" height="314" rx="30" fill="#101826" fill-opacity="0.62" stroke="#2B3E63"/>
    <rect x="146" y="112" width="314" height="278" rx="24" fill="url(#leftPanel)" stroke="#31456C"/>
    <rect x="484" y="112" width="262" height="278" rx="24" fill="url(#rightPanel)" stroke="#2F456D"/>
  </g>

  <rect x="178" y="138" width="118" height="34" rx="17" fill="#E3BE70" fill-opacity="0.12" stroke="#C9A85F" stroke-opacity="0.48"/>
  <text x="237" y="160" fill="#F3D894" font-size="16" text-anchor="middle" font-family="Noto Sans SC, Microsoft YaHei, sans-serif" letter-spacing="1.4">行业研究</text>

  <text x="178" y="220" fill="#F4F7FC" font-size="56" font-weight="700" font-family="Noto Sans SC, Microsoft YaHei, sans-serif">AI + CTRM</text>
  <text x="178" y="272" fill="#DFE8F7" font-size="22" font-weight="500" font-family="Noto Sans SC, Microsoft YaHei, sans-serif">应用边界、落地路径</text>
  <text x="178" y="306" fill="#DFE8F7" font-size="22" font-weight="500" font-family="Noto Sans SC, Microsoft YaHei, sans-serif">与治理框架</text>
  <text x="178" y="344" fill="#8FA2C4" font-size="14" font-family="Noto Sans SC, Microsoft YaHei, sans-serif">场景落地 / 控制边界</text>
  <text x="178" y="372" fill="#8FA2C4" font-size="14" font-family="Noto Sans SC, Microsoft YaHei, sans-serif">数据模型 / 风险治理</text>

  <text x="516" y="150" fill="#B7C7E0" font-size="16" font-weight="600" font-family="Noto Sans SC, Microsoft YaHei, sans-serif" letter-spacing="1.2">控制框架</text>

  <circle cx="550" cy="250" r="30" fill="#102038" stroke="#7EA8FF" stroke-width="2.5"/>
  <text x="550" y="257" fill="#EFF6FF" font-size="22" text-anchor="middle" font-family="Noto Sans SC, Microsoft YaHei, sans-serif">CTRM</text>

  <rect x="596" y="170" width="124" height="50" rx="14" fill="#1A2742" stroke="#6C91D5" stroke-width="2"/>
  <text x="658" y="201" fill="#EAF2FF" font-size="20" text-anchor="middle" font-family="Noto Sans SC, Microsoft YaHei, sans-serif">规则引擎</text>

  <rect x="596" y="230" width="124" height="50" rx="14" fill="#182C3D" stroke="#63B0C5" stroke-width="2"/>
  <text x="658" y="261" fill="#E8FFFB" font-size="20" text-anchor="middle" font-family="Noto Sans SC, Microsoft YaHei, sans-serif">量化引擎</text>

  <rect x="596" y="290" width="124" height="50" rx="14" fill="#2A2139" stroke="#A487D1" stroke-width="2"/>
  <text x="658" y="321" fill="#F3ECFF" font-size="20" text-anchor="middle" font-family="Noto Sans SC, Microsoft YaHei, sans-serif">AI 引擎</text>

  <path d="M582 236C590 224 594 214 596 195" stroke="url(#line)" stroke-width="3.4" stroke-linecap="round"/>
  <path d="M584 250H596" stroke="url(#line)" stroke-width="3.4" stroke-linecap="round"/>
  <path d="M582 264C590 276 594 286 596 315" stroke="url(#line)" stroke-width="3.4" stroke-linecap="round"/>

  <path d="M456 250H510" stroke="#4E648A" stroke-width="1.4" stroke-dasharray="5 6"/>
</svg>